<?xml version="1.0" encoding="UTF-8" standalone="no"?>
<!-- Created with Inkscape (http://www.inkscape.org/) -->

<svg
   xmlns:dc="http://purl.org/dc/elements/1.1/"
   xmlns:cc="http://creativecommons.org/ns#"
   xmlns:rdf="http://www.w3.org/1999/02/22-rdf-syntax-ns#"
   xmlns:svg="http://www.w3.org/2000/svg"
   xmlns="http://www.w3.org/2000/svg"
   xmlns:sodipodi="http://sodipodi.sourceforge.net/DTD/sodipodi-0.dtd"
   xmlns:inkscape="http://www.inkscape.org/namespaces/inkscape"
   width="297mm"
   height="210mm"
   id="svg2985"
   version="1.1"
   inkscape:version="0.48.2 r9819"
   sodipodi:docname="lvl1.svg">
  <defs
     id="defs2987">
    <inkscape:perspective
       sodipodi:type="inkscape:persp3d"
       inkscape:vp_x="-1937.0812 : 298.34141 : 1"
       inkscape:vp_y="0 : 1000 : 0"
       inkscape:vp_z="832.39638 : 419.26503 : 1"
       inkscape:persp3d-origin="526.18109 : 248.03149 : 1"
       id="perspective2994" />
  </defs>
  <sodipodi:namedview
     inkscape:document-units="mm"
     pagecolor="#ffffff"
     bordercolor="#666666"
     borderopacity="1.0"
     inkscape:pageopacity="0.0"
     inkscape:pageshadow="2"
     inkscape:zoom="0.86831672"
     inkscape:cx="504.60274"
     inkscape:cy="438.53289"
     inkscape:current-layer="layer1"
     id="namedview2989"
     showgrid="false"
     inkscape:window-width="1920"
     inkscape:window-height="1156"
     inkscape:window-x="1445"
     inkscape:window-y="0"
     inkscape:window-maximized="0" />
  <metadata
     id="metadata2991">
    <rdf:RDF>
      <cc:Work
         rdf:about="">
        <dc:format>image/svg+xml</dc:format>
        <dc:type
           rdf:resource="http://purl.org/dc/dcmitype/StillImage" />
        <dc:title />
      </cc:Work>
    </rdf:RDF>
  </metadata>
  <g
     inkscape:label="Layer 1"
     inkscape:groupmode="layer"
     id="layer1"
     style="display:inline">
    <rect
       style="fill:#550000;fill-rule:evenodd;stroke:#000000;stroke-width:1px;stroke-linecap:butt;stroke-linejoin:miter;stroke-opacity:1"
       id="rect3010"
       width="997.33197"
       height="51.824409"
       x="6.9099216"
       y="586.31787" />
    <rect
       style="fill:#550000"
       id="rect3012"
       width="128.05191"
       height="17.929388"
       x="204.63115"
       y="499.28931" />
    <rect
       style="fill:#550000"
       id="rect3014"
       width="115.46878"
       height="17.929388"
       x="390.10712"
       y="452.4111" />
    <rect
       style="fill:#550000"
       id="rect3019"
       width="103.62582"
       height="20.687757"
       x="274.13721"
       y="367.99734" />
    <rect
       style="fill:#550000"
       id="rect3021"
       width="158.39949"
       height="35.858776"
       x="95.58033"
       y="298.11401" />
    <path
       sodipodi:type="arc"
       style="fill:#0000ff"
       id="path3069"
       sodipodi:cx="86.949837"
       sodipodi:cy="509.733"
       sodipodi:rx="20.153936"
       sodipodi:ry="20.153936"
       d="m 107.10377,509.733 a 20.153936,20.153936 0 1 1 -40.30787,0 20.153936,20.153936 0 1 1 40.30787,0 z"
       transform="translate(-9.2132281,-14.971496)" />
    <path
       sodipodi:type="arc"
       style="fill:#ffff00"
       id="path3242"
       sodipodi:cx="153.74574"
       sodipodi:cy="203.39316"
       sodipodi:rx="13.244016"
       sodipodi:ry="12.092361"
       d="m 166.98976,203.39316 a 13.244016,12.092361 0 1 1 -26.48803,0 13.244016,12.092361 0 1 1 26.48803,0 z"
       transform="matrix(0.64271458,0,0,0.59878417,12.102703,160.80261)" />
    <path
       sodipodi:type="arc"
       style="fill:#ffff00"
       id="path3244"
       sodipodi:cx="212.48007"
       sodipodi:cy="199.36237"
       sodipodi:rx="12.092361"
       sodipodi:ry="10.364882"
       d="m 224.57243,199.36237 a 12.092361,10.364882 0 1 1 -24.18472,0 12.092361,10.364882 0 1 1 24.18472,0 z"
       transform="matrix(0.64271458,0,0,0.59878417,12.102703,160.80261)" />
    <path
       sodipodi:type="arc"
       style="fill:#ffff00"
       id="path3246"
       sodipodi:cx="259.69788"
       sodipodi:cy="187.27"
       sodipodi:rx="10.940708"
       sodipodi:ry="13.244016"
       d="m 270.63858,187.27 a 10.940708,13.244016 0 1 1 -21.88141,0 10.940708,13.244016 0 1 1 21.88141,0 z"
       transform="matrix(0.64271458,0,0,0.59878417,12.102703,160.80261)" />
    <path
       sodipodi:type="arc"
       style="fill:#ffff00"
       id="path3248"
       sodipodi:cx="312.09811"
       sodipodi:cy="202.81734"
       sodipodi:rx="13.819842"
       sodipodi:ry="9.2132282"
       d="m 325.91796,202.81734 a 13.819842,9.2132282 0 1 1 -27.63969,0 13.819842,9.2132282 0 1 1 27.63969,0 z"
       transform="matrix(0.64271458,0,0,0.59878417,12.102703,160.80261)" />
    <path
       d="m 224.57243,199.36237 a 12.092361,10.364882 0 1 1 -24.18472,0 12.092361,10.364882 0 1 1 24.18472,0 z"
       sodipodi:ry="10.364882"
       sodipodi:rx="12.092361"
       sodipodi:cy="199.36237"
       sodipodi:cx="212.48007"
       id="path3291"
       style="fill:#ffff00"
       sodipodi:type="arc"
       transform="matrix(0.64271458,0,0,0.59878417,103.1454,156.66506)" />
  </g>
</svg>
